<svg width="805" height="804" viewBox="0 0 805 804" fill="none" xmlns="http://www.w3.org/2000/svg">
<rect width="805" height="804" rx="270" fill="black"/>
<path d="M266.046 5.03554L436.994 5.30354C468.735 5.28654 506.285 4.31354 537.279 5.94354C530.575 10.4865 522.007 14.0145 514.76 17.7595C388.511 83.0065 265.973 184.467 232.045 329.659C231.41 334.448 229.878 340.097 228.979 344.984C221.512 385.56 225.145 425.343 236.549 464.812C239.817 476.124 244.277 486.982 248.625 497.887C158.885 391.168 135.568 224.295 159.601 90.2326C163.665 67.5616 167.731 44.5435 176.094 22.9715C180.563 21.0135 187.262 19.2785 192.014 17.6275C216.327 9.18155 240.287 5.70354 266.046 5.03554Z" fill="url(#paint0_linear_1007_27938)"/>
<path d="M561.304 310.982C573.536 323.738 587.994 347.983 596.464 363.652C640.876 445.819 658.32 540.837 656.319 633.736C655.344 674.784 649.736 715.591 639.601 755.38C637.882 761.923 635.252 772.171 632.765 778.322C609.838 787.915 585.663 794.2 560.967 796.988C547.844 798.515 536.078 798.125 522.908 798.023L482.686 797.921L320.472 798.061L275.979 797.781C268.457 797.711 258.825 797.304 251.547 797.763C275.182 789.814 293.06 782.046 315.875 772.002C316.922 771.11 331.153 764.122 333.418 762.99C356.609 750.96 378.877 737.23 400.041 721.913C409.96 714.619 419.798 706.228 429.565 698.607C436.633 692.163 444.106 685.974 451.361 679.316C457.601 672.314 464.845 665.752 471.326 658.88C535.992 590.301 587.362 499.303 582.295 402.345C580.607 370.039 573.475 340.961 561.304 310.982Z" fill="url(#paint1_linear_1007_27938)"/>
<path d="M429.562 698.607C436.63 692.163 444.104 685.974 451.359 679.316C449.148 685.553 442.195 692.494 436.124 695.12C433.761 696.142 432.151 698.132 429.562 698.607Z" fill="#FED700"/>
<path d="M315.875 772.002C316.922 771.11 331.153 764.122 333.418 762.99C333.732 763.713 333.816 763.889 334.044 764.652C330.17 766.975 320.532 772.23 316.297 772.379L315.875 772.002Z" fill="#FED700"/>
<path d="M9.89375 277.551L11.0387 280.532L12.6598 285.194L12.8568 285.575C16.5968 292.927 20.9017 303.984 24.3577 311.815C28.4437 320.829 32.8148 329.712 37.4658 338.449C72.3008 405.154 119.555 465.191 179.79 510.434C188.169 516.727 195.687 521.135 203.871 526.974C210.839 531.205 217.845 535.375 224.886 539.484C239.824 547.33 254.96 555.339 270.721 561.43C332.936 585.471 401.816 591.797 465.931 571.845C469.772 570.675 473.584 569.412 477.364 568.056C481.527 566.438 485.72 564.896 489.939 563.431C486.805 565.995 483.061 569.229 479.764 571.459C470.428 580.175 445.865 595.243 434.77 601.688C410.753 615.64 380.699 627.993 354.216 636.796C249.579 671.178 137.13 673.962 30.9197 644.8C20.0907 621.952 12.7008 597.627 8.98975 572.616C6.22775 553.166 6.50675 535.25 6.49075 515.671L6.48775 456.634L6.50076 344.876C6.50076 326.352 6.15975 307.026 6.49275 288.574L6.28875 282.061L6.09375 278.246C7.36675 277.956 8.60775 277.764 9.89375 277.551Z" fill="url(#paint2_linear_1007_27938)"/>
<path d="M203.867 526.975C210.835 531.206 217.841 535.376 224.882 539.485C222.289 539.913 215.279 536.477 213.026 534.928C209.742 532.671 204.976 530.932 203.867 526.975Z" fill="#FED700"/>
<path d="M9.89375 277.551L11.0387 280.532L12.6598 285.194C11.7698 284.853 11.7647 284.894 11.0807 284.179C9.02175 283.891 9.43475 283.621 7.95975 284.428C6.96075 286.28 6.94175 286.484 6.49275 288.574L6.28875 282.061L6.09375 278.246C7.36675 277.956 8.60775 277.764 9.89375 277.551Z" fill="#F7F08A"/>
<path d="M477.359 568.057C481.522 566.439 485.715 564.897 489.934 563.432C486.8 565.996 483.056 569.23 479.759 571.46L479.3 570.784C479.829 570.328 480.231 569.992 480.795 569.567L481.262 569.221L480.951 568.221L480.338 567.91C479.256 569.293 479.797 568.953 478.335 569.642L477.359 568.057Z" fill="#FED700"/>
<path d="M438.312 174.582C443.652 171.95 452.238 169.319 457.878 167.382C469.902 163.251 481.632 159.765 493.951 156.65C586.839 133.108 684.215 133.797 776.76 158.652C787.874 182.305 795.175 207.567 798.393 233.501C800.643 251 800.255 270.948 800.318 288.729L800.399 363.085L800.407 465.53C800.439 487.992 800.902 511.655 799.933 533.959C785.714 503.571 774.88 478.424 758.037 449.036C701.846 350.989 624.657 276.363 517.043 237.17C484.498 225.317 469.061 223.279 435.839 218.842C437.181 218.761 437.868 218.744 439.197 218.481L439.074 217.796C437.501 216.635 436.677 215.882 435.24 214.541C434.386 211.902 432.553 208.032 432.667 205.378C432.802 202.228 430.443 191.553 431.762 189.346C432.38 188.993 433.947 188.246 434.104 187.562C434.106 187.552 433.735 184.47 433.737 184.465C434.665 182.184 436.539 180.047 437.217 177.681C437.646 176.182 438.359 175.995 438.312 174.582Z" fill="url(#paint3_linear_1007_27938)"/>
<path d="M169.435 25.3945C170.182 26.1335 167.919 32.5025 167.447 34.1155C162.429 51.2675 158.722 69.2155 155.507 86.7695C136.83 188.741 145.473 296.515 182.725 393.415C206.364 454.903 243.618 509.556 297.904 547.724C313.369 558.598 330.203 568.977 347.583 576.677C308.748 572.279 277.786 561.107 242.789 544.005C128.24 484.281 53.6814 382.9 9.48842 263.238C6.02142 253.85 7.83241 244.457 9.14441 234.824C13.2084 205.091 22.2804 176.261 35.9744 149.559C59.3524 103.57 97.1174 62.2965 142.675 37.7725C151.286 33.1365 160.122 28.4435 169.435 25.3945Z" fill="#21B0FE"/>
<path d="M481.222 231.057C516.553 239.33 551.924 255.357 583.415 273.243C588.737 276.266 599.827 282.806 604.401 286.538C612.258 291.003 625.238 300.741 632.467 306.358C697.882 357.529 747.104 430.008 781.542 504.946C784.524 511.434 798.182 539.222 798.657 544.692C800.776 569.091 792.676 601.372 783.994 624.266C782.719 627.631 778.913 638.499 777.326 640.353C767.969 665.055 744.611 698.247 726.1 716.843C704.343 738.699 667.938 766.317 638.428 775.947C643.292 760.469 646.737 747.85 650.035 731.871C652.201 721.378 653.586 707.449 655.946 697.579C656.205 687.816 658.82 675.931 659.495 665.751C662.695 617.543 661.694 566.219 653.258 518.642C637.325 428.772 601.444 333.54 530.685 272.526C524.914 267.549 517.716 262.379 512.356 257.228L511.712 256.602C509.023 254.981 503.825 250.89 500.923 248.865C493.854 243.841 486.52 239.2 478.953 234.962C479.531 233.012 479.927 232.707 481.222 231.057Z" fill="#FED700"/>
<path d="M655.94 697.578C656.951 705.264 648.553 740.56 647.536 750.101L648.258 748.131C648.564 753.632 644.295 763.142 644.157 769.813C648.137 774.099 667.585 761.129 672.331 758.217C707.015 737.078 736.437 708.327 758.371 674.14C761.264 669.621 776.571 640.873 776.78 640.718C776.955 640.589 777.14 640.474 777.32 640.352C767.963 665.054 744.605 698.246 726.094 716.842C704.337 738.698 667.932 766.316 638.422 775.946C643.286 760.468 646.731 747.849 650.029 731.87C652.195 721.377 653.58 707.448 655.94 697.578Z" fill="#FED700"/>
<path d="M481.222 231.057C516.553 239.33 551.924 255.357 583.415 273.243C588.737 276.266 599.827 282.806 604.401 286.538C601.76 286.393 592.637 279.727 589.349 278.061C583.148 274.921 577.464 272.651 571.606 268.914L576.863 271.139C574.796 268.346 542.784 253.267 537.355 251.796C534.965 251.148 533.263 251.589 530.24 249.322C531.049 248.335 531.653 250.347 533.486 249.492C530.175 247.802 519.458 243.9 515.249 242.65C514.542 242.44 515.723 243.492 513.424 243.797C512.636 243.441 511.841 243.1 511.041 242.771C507.71 241.414 489.239 234.54 486.714 235.603C485.823 237.302 485.748 236.646 485.975 238.052L488.178 238.301C492.512 241.913 510.259 252.798 511.712 256.602C509.023 254.981 503.825 250.89 500.923 248.865C493.854 243.841 486.52 239.2 478.953 234.962C479.531 233.012 479.927 232.707 481.222 231.057Z" fill="#FED700"/>
<path d="M492.14 35.203C493.407 34.466 494.688 33.756 495.984 33.071C507.05 27.364 518.149 21.724 529.282 16.15C532.617 14.483 545.96 7.609 548.487 7.385C566.021 5.833 593.767 10.376 610.078 15.523C618.156 17.28 626.724 20.63 634.464 23.621C685.256 43.776 728.526 79.225 758.281 125.057C762.626 131.835 770.71 145.382 773.763 152.731C627.571 110.75 428.64 140.964 310.28 243.52C286.702 263.949 264.817 292.744 249.393 319.811C245.326 327.021 241.579 334.406 238.164 341.946C236.436 345.775 233.375 353.325 231.562 356.546C234.198 337.084 243.211 298.117 252.23 280.708C253.872 276.154 257.34 268.958 259.625 264.683C260.073 262.919 263.906 255.225 264.837 253.394C274.786 234.073 286.195 215.54 298.964 197.956C302.333 193.289 307.605 185.919 311.467 181.691C315.51 176.204 326.727 163.057 331.323 158.745C332.228 157.081 340.52 148.572 342.246 146.856C366.769 122.481 396.777 96.252 425.709 77.122C438.682 67.462 463.51 51.415 477.92 43.554C479.909 41.894 489.485 36.685 492.14 35.203Z" fill="url(#paint4_linear_1007_27938)"/>
<path d="M492.139 35.203C493.406 34.466 494.688 33.756 495.984 33.071C507.05 27.364 518.149 21.724 529.282 16.15C532.617 14.483 545.959 7.609 548.486 7.385C566.02 5.833 593.767 10.376 610.078 15.523C608.315 16.017 608.261 15.905 606.507 15.644L606.15 16.264C606.463 17.337 607.06 18.571 606.142 19.518C599.292 26.58 588.58 27.373 579.916 29.421C569.045 31.991 559.433 36.381 548.38 37.847C543.687 38.476 536.706 37.814 531.798 38.623C522.504 40.154 499.764 47.24 491.736 40.391C491.668 38.396 491.966 37.162 492.139 35.203Z" fill="#FED700"/>
<path d="M259.625 264.683C260.073 262.919 263.906 255.225 264.837 253.394C274.786 234.073 286.194 215.54 298.963 197.956C302.332 193.289 307.605 185.919 311.467 181.691L313.18 182.537C309.558 186.654 305.899 192.569 302.428 196.996C290.934 211.655 282.354 225.481 273.445 241.752C270.384 247.343 263.861 262.704 260.69 266.875L259.625 264.683Z" fill="#FED700"/>
<path d="M477.922 43.5547C476.63 46.7577 472.664 46.4087 472.858 48.7127L472.083 49.1877C466.201 52.8387 458.588 57.2957 453.056 61.0137C448.887 63.8157 451.592 68.6117 440.874 68.2327C437.684 68.1197 428.148 78.4907 425.711 77.1227C438.684 67.4627 463.512 51.4157 477.922 43.5547Z" fill="#FED700"/>
<path d="M311.469 181.69C315.512 176.203 326.728 163.056 331.324 158.744C331.315 159.43 331.287 160.693 330.848 161.216C326.276 166.655 317.854 177.852 313.182 182.536L311.469 181.69Z" fill="#FED700"/>
<path d="M252.234 280.709C253.876 276.155 257.344 268.959 259.629 264.684L260.694 266.876C258.557 271.476 256.352 277.323 252.861 280.789L252.234 280.709Z" fill="#FED700"/>
<path d="M472.856 48.7109C474.183 50.1319 473.782 49.2959 473.923 51.3849C473.182 52.9849 471.89 53.6779 470.274 54.3879L469.049 53.8969L468.984 53.0159C470.937 51.3119 471.634 51.0039 472.856 48.7109Z" fill="#FED700"/>
<path d="M577.115 441.613C576.088 460.75 570.945 479.423 565.317 497.612C543.617 567.742 493.641 635.076 439.175 684.016C389.132 728.462 331.216 763.153 268.415 786.299C261.55 788.87 242.182 796.414 235.76 795.778C224.013 794.615 209.148 791.3 197.831 788.165C147.659 774.266 103.547 746.857 69.8802 707.033C66.0432 702.495 56.0612 690.549 53.7442 685.456C50.1302 681.241 40.4382 663.883 37.4812 658.512C36.0462 655.851 34.7062 653.021 33.3672 650.301L40.5762 652.348C60.5622 657.709 83.9292 662.007 104.359 664.982C217.054 678.855 323.207 663.037 425.07 612.123L437.323 605.425C438.179 604.474 446.622 599.47 448.632 598.264C460.957 590.871 472.044 582.625 483.56 574.112C512.729 548.252 528.931 531.79 549.916 498.541C561.597 478.584 568.748 463.342 577.115 441.613Z" fill="url(#paint5_linear_1007_27938)"/>
<path d="M549.919 498.541L551.005 499.148C550.95 501.041 547.417 506.203 546.221 508.04C534.472 525.951 520.681 542.436 505.128 557.164C500.409 561.617 489.098 573.89 483.562 574.112C512.732 548.252 528.934 531.79 549.919 498.541Z" fill="#FED700"/>
<path d="M33.3672 650.301L40.5762 652.348C60.5622 657.709 83.9292 662.007 104.359 664.982C99.6452 667.377 54.7362 656.154 46.7002 655.338C46.5512 655.621 46.4012 655.904 46.2512 656.187C46.6422 661.047 44.0242 659.5 43.7012 664.96C42.9112 664.858 43.2972 664.972 42.5472 664.6C43.1142 670.442 53.7112 680.732 53.7442 685.456C50.1302 681.241 40.4382 663.883 37.4812 658.512C36.0462 655.851 34.7062 653.021 33.3672 650.301Z" fill="#FED700"/>
<path d="M33.3672 650.301L40.5762 652.348C39.6642 654.544 38.9612 656.682 37.4812 658.512C36.0462 655.851 34.7062 653.021 33.3672 650.301Z" fill="#F7F08A"/>
<path d="M425.07 612.124L437.323 605.426C436.346 608.341 435.484 608.838 432.597 610.458C430.857 611.434 427.004 612.894 425.07 612.124Z" fill="#FED700"/>
<path d="M474.514 422.115C476.593 428.435 472.79 453.212 470.842 460.792C459.684 504.209 432.711 540.094 395.728 564.923C387.933 570.156 379.188 574.515 371.025 579.359C357.915 577.731 352.618 575.184 340.932 569.397C319.127 558.599 301.177 545.176 282.273 530.21C276.446 525.504 251.312 504.245 252.704 498.024C260.329 500.856 268.012 503.942 275.684 506.805C353.565 535.865 445.786 504.614 474.514 422.115Z" fill="url(#paint6_linear_1007_27938)"/>
<path d="M230.462 367.695C231.926 369.919 234.059 373.984 235.152 376.447C265.522 444.91 339.156 496.099 415.779 475.284C426.4 472.399 436.56 468.25 446.969 464.342C441.126 471.038 434.687 477.189 427.731 482.72C384.462 516.576 328.002 522.402 277.072 503.962C268.059 500.698 259.194 497.769 250.701 493.175C235.867 464.579 224.308 399.288 230.462 367.695Z" fill="url(#paint7_linear_1007_27938)"/>
<path d="M363.219 335.818C413.723 284.342 485.732 274.712 549.433 306.925C552.305 308.448 556.232 310.261 558.206 312.824C559.572 318.807 565.507 332.908 567.68 340.511C576.496 371.35 581.04 404.931 577.989 436.947C573.705 427.428 569.647 418.369 564.437 409.289C547.786 379.794 522.875 355.811 492.769 340.292C465.536 326.379 430.024 321.153 399.886 326.015C387.85 327.957 374.784 332.092 363.219 335.818Z" fill="#21B0FE"/>
<path d="M384.259 224.608C406.579 222.491 419.106 222.42 441.001 224.001C432.785 227.71 424.729 230.247 416.572 234.401C411.978 236.741 406.278 241.104 402.282 243.072C397.881 246.592 392.932 249.818 388.334 253.543C376.986 262.842 366.987 273.675 358.624 285.729C333.543 322.11 321.466 369.91 331.762 413.213C333.778 421.695 335.846 430.237 337.427 438.807C315.605 416.265 302.214 387.66 296.832 357.03C291.741 328.053 293.314 302.213 300.089 273.817C301.418 268.246 303.279 257.152 306.761 253.006C319.494 237.842 365.658 227.168 384.259 224.608Z" fill="url(#paint8_linear_1007_27938)"/>
<path d="M384.258 224.608C406.578 222.491 419.105 222.42 441 224.001C432.784 227.71 424.728 230.247 416.571 234.401C411.977 236.741 406.277 241.104 402.281 243.072C401.434 242.601 401.747 242.931 401.319 242.1L402.445 240.532C400.347 238.247 396.128 241.02 393.506 240.348C388.76 239.13 389.892 234.609 386.994 230.393C388.406 228.97 389.009 228.424 390.117 226.786L389.763 226.148C387.406 225.735 386.523 225.428 384.258 224.608Z" fill="#21B0FE"/>
<path d="M447.578 225.307C449.306 225.174 450.644 225.295 452.272 225.892C479.269 235.784 543.979 281.716 555.535 306.128C502.356 279.046 449.998 276.587 396.757 305.568C376.997 316.419 360.155 331.622 346.952 349.752C342.078 356.445 337.265 364.667 331.75 370.744C333.496 349.067 339.443 327.938 349.26 308.534C370.054 267.175 403.883 239.744 447.578 225.307Z" fill="url(#paint9_linear_1007_27938)"/>
<path d="M396.383 347.573C426.094 343.894 453.157 365.008 456.817 394.721C460.478 424.434 439.347 451.484 409.632 455.126C379.943 458.765 352.921 437.657 349.264 407.97C345.607 378.283 366.698 351.248 396.383 347.573Z" fill="#FED700"/>
<path d="M466.047 361.533C466.428 361.778 467.42 362.346 468.114 363.005C516.791 409.209 523.961 494.164 498.912 553.326C496.009 560.18 450.865 572.623 437.946 575.207C429.579 576.937 421.107 578.107 412.584 578.711C400.927 579.641 389.229 579.943 377.539 579.616C416.448 558.874 445.551 531.031 463.971 490.584C477.785 459.567 481.762 425.062 475.369 391.715C473.592 382.922 469.227 370.07 466.047 361.533Z" fill="#21B0FE"/>
<path d="M423.594 327.414C427.165 327.132 431.861 327.689 435.46 327.947C499.899 332.551 551.992 378.952 574.493 438.151C565.469 463.899 548.355 496.782 531.901 518.468C522.354 530.486 514.735 539.095 504.341 550.17C527.745 481.104 518.707 397.697 458.08 349.153C447.665 340.813 435.022 334.432 423.594 327.414Z" fill="url(#paint10_linear_1007_27938)"/>
<path d="M300.099 258.875C289.279 304.791 286.177 328.296 296.769 374.316C308.917 412.869 330.031 443.362 364.313 465.1C370.177 468.818 376.423 473.624 382.549 476.771L383.05 477.022C346.887 478.167 306.401 459.552 280.433 434.84C270.754 425.629 250.709 401.751 246.123 389.37C241.141 382.291 236.687 371.568 233.453 363.608C240.661 339.521 264.048 302.439 279.325 282.47C285.524 274.366 293.458 266.577 300.099 258.875Z" fill="#21B0FE"/>
<path d="M326.484 236.015C349.35 216.975 377.252 201.458 404.113 188.936C414.012 184.321 427.895 177.956 438.316 174.582C438.363 175.995 437.65 176.182 437.221 177.681C436.543 180.047 434.669 182.184 433.741 184.465C433.739 184.47 434.11 187.552 434.108 187.562C433.951 188.246 432.384 188.993 431.766 189.346C430.447 191.553 432.806 202.228 432.671 205.378C432.557 208.032 434.39 211.902 435.244 214.541C436.681 215.882 437.505 216.635 439.078 217.796L439.201 218.481C437.872 218.744 437.185 218.761 435.843 218.842C427.724 219.126 416.681 217.914 407.279 218.251C376.126 219.368 354.961 225.712 326.484 236.015Z" fill="#FEFBFA"/>
<path d="M465.375 227.545C470.688 228.569 475.972 229.739 481.221 231.055C479.926 232.705 479.53 233.01 478.952 234.96C474.155 232.569 470.008 230.207 465.375 227.545Z" fill="#F7F08A"/>
<path d="M6.00806 268.137C7.29506 270.811 8.74406 274.716 9.88706 277.552C8.60106 277.765 7.36006 277.957 6.08706 278.247C5.96006 274.94 6.01006 271.46 6.00806 268.137Z" fill="#FEE9A8"/>
<defs>
<linearGradient id="paint0_linear_1007_27938" x1="453.275" y1="329.864" x2="197.56" y2="7.26247" gradientUnits="userSpaceOnUse">
<stop stop-color="#007BEF"/>
<stop offset="1" stop-color="#16ABFA"/>
</linearGradient>
<linearGradient id="paint1_linear_1007_27938" x1="603.995" y1="799.052" x2="352.201" y2="481.105" gradientUnits="userSpaceOnUse">
<stop stop-color="#FBA805"/>
<stop offset="1" stop-color="#FDC910"/>
</linearGradient>
<linearGradient id="paint2_linear_1007_27938" x1="259.031" y1="658.075" x2="195.614" y2="254.08" gradientUnits="userSpaceOnUse">
<stop stop-color="#FBC700"/>
<stop offset="1" stop-color="#FFF473"/>
</linearGradient>
<linearGradient id="paint3_linear_1007_27938" x1="824.549" y1="512.571" x2="547.708" y2="101.407" gradientUnits="userSpaceOnUse">
<stop stop-color="#E9D1B0"/>
<stop offset="1" stop-color="#FEF3EA"/>
</linearGradient>
<linearGradient id="paint4_linear_1007_27938" x1="504.676" y1="256.228" x2="435.511" y2="55.7584" gradientUnits="userSpaceOnUse">
<stop stop-color="#F8B900"/>
<stop offset="1" stop-color="#FCF14D"/>
</linearGradient>
<linearGradient id="paint5_linear_1007_27938" x1="398.052" y1="720.547" x2="288.724" y2="521.642" gradientUnits="userSpaceOnUse">
<stop stop-color="#FBBD00"/>
<stop offset="1" stop-color="#FEFB3C"/>
</linearGradient>
<linearGradient id="paint6_linear_1007_27938" x1="326.454" y1="562.222" x2="401.365" y2="393.139" gradientUnits="userSpaceOnUse">
<stop stop-color="#008CF6"/>
<stop offset="1" stop-color="#48CBFF"/>
</linearGradient>
<linearGradient id="paint7_linear_1007_27938" x1="240.988" y1="471.425" x2="405.909" y2="390.91" gradientUnits="userSpaceOnUse">
<stop stop-color="#0090FA"/>
<stop offset="1" stop-color="#45C8FB"/>
</linearGradient>
<linearGradient id="paint8_linear_1007_27938" x1="348.416" y1="225.158" x2="347.617" y2="436.346" gradientUnits="userSpaceOnUse">
<stop stop-color="#14A3F7"/>
<stop offset="1" stop-color="#48C9FF"/>
</linearGradient>
<linearGradient id="paint9_linear_1007_27938" x1="486.874" y1="245.3" x2="394.617" y2="404.115" gradientUnits="userSpaceOnUse">
<stop stop-color="#15A3F8"/>
<stop offset="1" stop-color="#3BBFFD"/>
</linearGradient>
<linearGradient id="paint10_linear_1007_27938" x1="467.501" y1="538.845" x2="507.685" y2="342.068" gradientUnits="userSpaceOnUse">
<stop stop-color="#119FF3"/>
<stop offset="1" stop-color="#3DC0FD"/>
</linearGradient>
</defs>
</svg>
